<svg width="25" height="25" viewBox="0 0 25 25" fill="none" xmlns="http://www.w3.org/2000/svg">
<g clip-path="url(#clip0_8_135)">
<path fill-rule="evenodd" clip-rule="evenodd" d="M18.1406 14.9813C17.8302 14.8261 16.3083 14.0782 16.025 13.974C15.7417 13.8709 15.5354 13.8198 15.3281 14.1303C15.1219 14.4386 14.5292 15.1365 14.349 15.3428C14.1677 15.55 13.9875 15.575 13.6781 15.4209C13.3688 15.2646 12.3708 14.9386 11.1885 13.8844C10.2688 13.0636 9.64688 12.05 9.46667 11.7396C9.28646 11.4303 9.44688 11.2625 9.60208 11.1084C9.74167 10.9698 9.91146 10.7469 10.0667 10.5667C10.2219 10.3855 10.2729 10.2563 10.376 10.049C10.4802 9.84275 10.4281 9.66254 10.35 9.50733C10.2729 9.35213 9.65417 7.82817 9.39583 7.20838C9.14479 6.60525 8.88958 6.68754 8.7 6.67713C8.51875 6.66879 8.3125 6.66671 8.10625 6.66671C7.9 6.66671 7.56458 6.74379 7.28125 7.05421C6.99688 7.36358 6.19792 8.11254 6.19792 9.6365C6.19792 11.1594 7.30625 12.6313 7.46146 12.8386C7.61667 13.0448 9.64375 16.1719 12.749 17.5125C13.4885 17.8313 14.0646 18.0219 14.5135 18.1636C15.2552 18.4 15.9302 18.3667 16.4635 18.2865C17.0573 18.198 18.2948 17.5375 18.5531 16.8146C18.8104 16.0917 18.8104 15.4719 18.7333 15.3428C18.6562 15.2136 18.45 15.1365 18.1396 14.9813H18.1406ZM12.4927 22.6928H12.4885C10.6442 22.6931 8.83372 22.1973 7.24688 21.2573L6.87188 21.0344L2.97396 22.0573L4.01458 18.2573L3.76979 17.8678C2.73869 16.2264 2.19302 14.3269 2.19583 12.3886C2.19792 6.7115 6.81667 2.09275 12.4969 2.09275C15.2469 2.09275 17.8323 3.16567 19.776 5.1115C20.7348 6.06627 21.4947 7.20167 22.0117 8.45202C22.5288 9.70236 22.7929 11.0428 22.7885 12.3959C22.7865 18.073 18.1677 22.6928 12.4927 22.6928ZM21.2552 3.63338C20.1075 2.47809 18.7419 1.56206 17.2376 0.938376C15.7333 0.314692 14.1201 -0.00424609 12.4917 4.2685e-05C5.66458 4.2685e-05 0.10625 5.55733 0.104167 12.3875C0.101003 14.5612 0.671223 16.6973 1.75729 18.5803L0 25L6.56667 23.2771C8.3832 24.2668 10.4188 24.7854 12.4875 24.7855H12.4927C19.3198 24.7855 24.8781 19.2282 24.8802 12.3969C24.8852 10.7691 24.5675 9.1564 23.9452 7.65216C23.323 6.14792 22.4087 4.78199 21.2552 3.63338Z" fill="#212529"/>
</g>
<defs>
<clipPath id="clip0_8_135">
<rect width="25" height="25" fill="white"/>
</clipPath>
</defs>
</svg>
