<svg width="25" height="25" viewBox="0 0 25 25" fill="none" xmlns="http://www.w3.org/2000/svg">
<path fill-rule="evenodd" clip-rule="evenodd" d="M1.04169 2.95621C1.04169 2.44843 1.2434 1.96145 1.60246 1.6024C1.96151 1.24334 2.44849 1.04163 2.95627 1.04163H22.0417C22.2933 1.04122 22.5426 1.09044 22.7752 1.18649C23.0078 1.28254 23.2191 1.42351 23.3972 1.60135C23.5752 1.77919 23.7164 1.9904 23.8127 2.22289C23.909 2.45537 23.9585 2.70457 23.9584 2.95621V22.0416C23.9586 22.2933 23.9093 22.5426 23.8131 22.7752C23.717 23.0078 23.5759 23.2191 23.398 23.3972C23.22 23.5752 23.0088 23.7164 22.7762 23.8127C22.5437 23.9089 22.2944 23.9584 22.0427 23.9583H2.95627C2.70476 23.9583 2.45571 23.9087 2.22335 23.8125C1.99099 23.7162 1.77989 23.5751 1.60209 23.3972C1.42429 23.2193 1.28328 23.0081 1.18713 22.7757C1.09097 22.5433 1.04155 22.2942 1.04169 22.0427V2.95621ZM10.1125 9.77913H13.2156V11.3375C13.6636 10.4416 14.8094 9.63538 16.5313 9.63538C19.8323 9.63538 20.6146 11.4198 20.6146 14.6937V20.7583H17.274V15.4395C17.274 13.575 16.8261 12.5229 15.6886 12.5229C14.1104 12.5229 13.4542 13.6573 13.4542 15.4395V20.7583H10.1125V9.77913ZM4.38335 20.6156H7.72502V9.63538H4.38335V20.6145V20.6156ZM8.20315 6.05413C8.20945 6.34025 8.15853 6.62474 8.05339 6.89091C7.94826 7.15709 7.79101 7.39958 7.59089 7.60416C7.39076 7.80874 7.15179 7.97129 6.88799 8.08226C6.6242 8.19323 6.3409 8.2504 6.05471 8.2504C5.76852 8.2504 5.48522 8.19323 5.22142 8.08226C4.95763 7.97129 4.71865 7.80874 4.51853 7.60416C4.3184 7.39958 4.16116 7.15709 4.05602 6.89091C3.95088 6.62474 3.89997 6.34025 3.90627 6.05413C3.91864 5.49252 4.15042 4.95808 4.55198 4.56526C4.95355 4.17244 5.49296 3.95248 6.05471 3.95248C6.61645 3.95248 7.15587 4.17244 7.55743 4.56526C7.95899 4.95808 8.19078 5.49252 8.20315 6.05413Z" fill="#212529"/>
</svg>
