<svg width="19" height="37" viewBox="0 0 19 37" fill="none" xmlns="http://www.w3.org/2000/svg">
<path d="M16.8372 0H2.10465C1.54646 0 1.01114 0.27452 0.616438 0.763168C0.22174 1.25182 0 1.91457 0 2.60562V33.8731C0 34.5641 0.22174 35.2269 0.616438 35.7155C1.01114 36.2042 1.54646 36.4787 2.10465 36.4787H16.8372C17.3954 36.4787 17.9307 36.2042 18.3254 35.7155C18.7201 35.2269 18.9419 34.5641 18.9419 33.8731V2.60562C18.9419 1.91457 18.7201 1.25182 18.3254 0.763168C17.9307 0.27452 17.3954 0 16.8372 0V0ZM2.10465 2.60562H16.8372V26.0562H2.10465V2.60562ZM2.10465 33.8731V28.6618H16.8372V33.8731H2.10465Z" fill="#F8F9FA"/>
<path d="M8.41858 29.9647H10.5232V32.5703H8.41858V29.9647Z" fill="#F8F9FA"/>
</svg>
